%
M48
M72
T01C0.03200
T02C0.04000
%
T01
X10658Y23847
X10658Y43611
X11052Y63769
X41052Y63769
X49241Y71013
X54241Y63513
X59241Y71013
X59241Y51249
X54241Y43749
X49241Y51249
X40658Y43611
X49635Y31485
X54635Y23985
X59635Y31485
X40658Y23847
T02
X10894Y10265
X20894Y10265
X30894Y10265
X61564Y09989
X71564Y09989
X71485Y30383
X71485Y40383
X71485Y50383
X71485Y60383
M30
