G75*
%MOIN*%
%OFA0B0*%
%FSLAX25Y25*%
%IPPOS*%
%LPD*%
%AMOC8*
5,1,8,0,0,1.08239X$1,22.5*
%
%ADD10C,0.00600*%
%ADD11C,0.00500*%
%ADD12R,0.01500X0.02000*%
%ADD13C,0.00400*%
D10*
X0005894Y0007765D02*
X0008394Y0005265D01*
X0013394Y0005265D01*
X0015894Y0007765D01*
X0018394Y0005265D01*
X0023394Y0005265D01*
X0025894Y0007765D01*
X0028394Y0005265D01*
X0033394Y0005265D01*
X0035894Y0007765D01*
X0035894Y0012765D01*
X0033394Y0015265D01*
X0028394Y0015265D01*
X0025894Y0012765D01*
X0025894Y0007765D01*
X0025894Y0012765D02*
X0023394Y0015265D01*
X0018394Y0015265D01*
X0015894Y0012765D01*
X0015894Y0007765D01*
X0015894Y0012765D02*
X0013394Y0015265D01*
X0008394Y0015265D01*
X0005894Y0012765D01*
X0005894Y0007765D01*
X0016658Y0019847D02*
X0018158Y0019847D01*
X0018658Y0020347D01*
X0032658Y0020347D01*
X0033158Y0019847D01*
X0034658Y0019847D01*
X0034718Y0019849D01*
X0034779Y0019854D01*
X0034838Y0019863D01*
X0034897Y0019876D01*
X0034956Y0019892D01*
X0035013Y0019912D01*
X0035068Y0019935D01*
X0035123Y0019962D01*
X0035175Y0019991D01*
X0035226Y0020024D01*
X0035275Y0020060D01*
X0035321Y0020098D01*
X0035365Y0020140D01*
X0035407Y0020184D01*
X0035445Y0020230D01*
X0035481Y0020279D01*
X0035514Y0020330D01*
X0035543Y0020382D01*
X0035570Y0020437D01*
X0035593Y0020492D01*
X0035613Y0020549D01*
X0035629Y0020608D01*
X0035642Y0020667D01*
X0035651Y0020726D01*
X0035656Y0020787D01*
X0035658Y0020847D01*
X0035658Y0026847D01*
X0035656Y0026907D01*
X0035651Y0026968D01*
X0035642Y0027027D01*
X0035629Y0027086D01*
X0035613Y0027145D01*
X0035593Y0027202D01*
X0035570Y0027257D01*
X0035543Y0027312D01*
X0035514Y0027364D01*
X0035481Y0027415D01*
X0035445Y0027464D01*
X0035407Y0027510D01*
X0035365Y0027554D01*
X0035321Y0027596D01*
X0035275Y0027634D01*
X0035226Y0027670D01*
X0035175Y0027703D01*
X0035123Y0027732D01*
X0035068Y0027759D01*
X0035013Y0027782D01*
X0034956Y0027802D01*
X0034897Y0027818D01*
X0034838Y0027831D01*
X0034779Y0027840D01*
X0034718Y0027845D01*
X0034658Y0027847D01*
X0033158Y0027847D01*
X0032658Y0027347D01*
X0018658Y0027347D01*
X0018158Y0027847D01*
X0016658Y0027847D01*
X0016598Y0027845D01*
X0016537Y0027840D01*
X0016478Y0027831D01*
X0016419Y0027818D01*
X0016360Y0027802D01*
X0016303Y0027782D01*
X0016248Y0027759D01*
X0016193Y0027732D01*
X0016141Y0027703D01*
X0016090Y0027670D01*
X0016041Y0027634D01*
X0015995Y0027596D01*
X0015951Y0027554D01*
X0015909Y0027510D01*
X0015871Y0027464D01*
X0015835Y0027415D01*
X0015802Y0027364D01*
X0015773Y0027312D01*
X0015746Y0027257D01*
X0015723Y0027202D01*
X0015703Y0027145D01*
X0015687Y0027086D01*
X0015674Y0027027D01*
X0015665Y0026968D01*
X0015660Y0026907D01*
X0015658Y0026847D01*
X0015658Y0020847D01*
X0015660Y0020787D01*
X0015665Y0020726D01*
X0015674Y0020667D01*
X0015687Y0020608D01*
X0015703Y0020549D01*
X0015723Y0020492D01*
X0015746Y0020437D01*
X0015773Y0020382D01*
X0015802Y0020330D01*
X0015835Y0020279D01*
X0015871Y0020230D01*
X0015909Y0020184D01*
X0015951Y0020140D01*
X0015995Y0020098D01*
X0016041Y0020060D01*
X0016090Y0020024D01*
X0016141Y0019991D01*
X0016193Y0019962D01*
X0016248Y0019935D01*
X0016303Y0019912D01*
X0016360Y0019892D01*
X0016419Y0019876D01*
X0016478Y0019863D01*
X0016537Y0019854D01*
X0016598Y0019849D01*
X0016658Y0019847D01*
X0016658Y0039611D02*
X0018158Y0039611D01*
X0018658Y0040111D01*
X0032658Y0040111D01*
X0033158Y0039611D01*
X0034658Y0039611D01*
X0034718Y0039613D01*
X0034779Y0039618D01*
X0034838Y0039627D01*
X0034897Y0039640D01*
X0034956Y0039656D01*
X0035013Y0039676D01*
X0035068Y0039699D01*
X0035123Y0039726D01*
X0035175Y0039755D01*
X0035226Y0039788D01*
X0035275Y0039824D01*
X0035321Y0039862D01*
X0035365Y0039904D01*
X0035407Y0039948D01*
X0035445Y0039994D01*
X0035481Y0040043D01*
X0035514Y0040094D01*
X0035543Y0040146D01*
X0035570Y0040201D01*
X0035593Y0040256D01*
X0035613Y0040313D01*
X0035629Y0040372D01*
X0035642Y0040431D01*
X0035651Y0040490D01*
X0035656Y0040551D01*
X0035658Y0040611D01*
X0035658Y0046611D01*
X0035656Y0046671D01*
X0035651Y0046732D01*
X0035642Y0046791D01*
X0035629Y0046850D01*
X0035613Y0046909D01*
X0035593Y0046966D01*
X0035570Y0047021D01*
X0035543Y0047076D01*
X0035514Y0047128D01*
X0035481Y0047179D01*
X0035445Y0047228D01*
X0035407Y0047274D01*
X0035365Y0047318D01*
X0035321Y0047360D01*
X0035275Y0047398D01*
X0035226Y0047434D01*
X0035175Y0047467D01*
X0035123Y0047496D01*
X0035068Y0047523D01*
X0035013Y0047546D01*
X0034956Y0047566D01*
X0034897Y0047582D01*
X0034838Y0047595D01*
X0034779Y0047604D01*
X0034718Y0047609D01*
X0034658Y0047611D01*
X0033158Y0047611D01*
X0032658Y0047111D01*
X0018658Y0047111D01*
X0018158Y0047611D01*
X0016658Y0047611D01*
X0016598Y0047609D01*
X0016537Y0047604D01*
X0016478Y0047595D01*
X0016419Y0047582D01*
X0016360Y0047566D01*
X0016303Y0047546D01*
X0016248Y0047523D01*
X0016193Y0047496D01*
X0016141Y0047467D01*
X0016090Y0047434D01*
X0016041Y0047398D01*
X0015995Y0047360D01*
X0015951Y0047318D01*
X0015909Y0047274D01*
X0015871Y0047228D01*
X0015835Y0047179D01*
X0015802Y0047128D01*
X0015773Y0047076D01*
X0015746Y0047021D01*
X0015723Y0046966D01*
X0015703Y0046909D01*
X0015687Y0046850D01*
X0015674Y0046791D01*
X0015665Y0046732D01*
X0015660Y0046671D01*
X0015658Y0046611D01*
X0015658Y0040611D01*
X0015660Y0040551D01*
X0015665Y0040490D01*
X0015674Y0040431D01*
X0015687Y0040372D01*
X0015703Y0040313D01*
X0015723Y0040256D01*
X0015746Y0040201D01*
X0015773Y0040146D01*
X0015802Y0040094D01*
X0015835Y0040043D01*
X0015871Y0039994D01*
X0015909Y0039948D01*
X0015951Y0039904D01*
X0015995Y0039862D01*
X0016041Y0039824D01*
X0016090Y0039788D01*
X0016141Y0039755D01*
X0016193Y0039726D01*
X0016248Y0039699D01*
X0016303Y0039676D01*
X0016360Y0039656D01*
X0016419Y0039640D01*
X0016478Y0039627D01*
X0016537Y0039618D01*
X0016598Y0039613D01*
X0016658Y0039611D01*
X0017052Y0059769D02*
X0018552Y0059769D01*
X0019052Y0060269D01*
X0033052Y0060269D01*
X0033552Y0059769D01*
X0035052Y0059769D01*
X0035112Y0059771D01*
X0035173Y0059776D01*
X0035232Y0059785D01*
X0035291Y0059798D01*
X0035350Y0059814D01*
X0035407Y0059834D01*
X0035462Y0059857D01*
X0035517Y0059884D01*
X0035569Y0059913D01*
X0035620Y0059946D01*
X0035669Y0059982D01*
X0035715Y0060020D01*
X0035759Y0060062D01*
X0035801Y0060106D01*
X0035839Y0060152D01*
X0035875Y0060201D01*
X0035908Y0060252D01*
X0035937Y0060304D01*
X0035964Y0060359D01*
X0035987Y0060414D01*
X0036007Y0060471D01*
X0036023Y0060530D01*
X0036036Y0060589D01*
X0036045Y0060648D01*
X0036050Y0060709D01*
X0036052Y0060769D01*
X0036052Y0066769D01*
X0036050Y0066829D01*
X0036045Y0066890D01*
X0036036Y0066949D01*
X0036023Y0067008D01*
X0036007Y0067067D01*
X0035987Y0067124D01*
X0035964Y0067179D01*
X0035937Y0067234D01*
X0035908Y0067286D01*
X0035875Y0067337D01*
X0035839Y0067386D01*
X0035801Y0067432D01*
X0035759Y0067476D01*
X0035715Y0067518D01*
X0035669Y0067556D01*
X0035620Y0067592D01*
X0035569Y0067625D01*
X0035517Y0067654D01*
X0035462Y0067681D01*
X0035407Y0067704D01*
X0035350Y0067724D01*
X0035291Y0067740D01*
X0035232Y0067753D01*
X0035173Y0067762D01*
X0035112Y0067767D01*
X0035052Y0067769D01*
X0033552Y0067769D01*
X0033052Y0067269D01*
X0019052Y0067269D01*
X0018552Y0067769D01*
X0017052Y0067769D01*
X0016992Y0067767D01*
X0016931Y0067762D01*
X0016872Y0067753D01*
X0016813Y0067740D01*
X0016754Y0067724D01*
X0016697Y0067704D01*
X0016642Y0067681D01*
X0016587Y0067654D01*
X0016535Y0067625D01*
X0016484Y0067592D01*
X0016435Y0067556D01*
X0016389Y0067518D01*
X0016345Y0067476D01*
X0016303Y0067432D01*
X0016265Y0067386D01*
X0016229Y0067337D01*
X0016196Y0067286D01*
X0016167Y0067234D01*
X0016140Y0067179D01*
X0016117Y0067124D01*
X0016097Y0067067D01*
X0016081Y0067008D01*
X0016068Y0066949D01*
X0016059Y0066890D01*
X0016054Y0066829D01*
X0016052Y0066769D01*
X0016052Y0060769D01*
X0016054Y0060709D01*
X0016059Y0060648D01*
X0016068Y0060589D01*
X0016081Y0060530D01*
X0016097Y0060471D01*
X0016117Y0060414D01*
X0016140Y0060359D01*
X0016167Y0060304D01*
X0016196Y0060252D01*
X0016229Y0060201D01*
X0016265Y0060152D01*
X0016303Y0060106D01*
X0016345Y0060062D01*
X0016389Y0060020D01*
X0016435Y0059982D01*
X0016484Y0059946D01*
X0016535Y0059913D01*
X0016587Y0059884D01*
X0016642Y0059857D01*
X0016697Y0059834D01*
X0016754Y0059814D01*
X0016813Y0059798D01*
X0016872Y0059785D01*
X0016931Y0059776D01*
X0016992Y0059771D01*
X0017052Y0059769D01*
X0066485Y0057883D02*
X0068985Y0055383D01*
X0066485Y0052883D01*
X0066485Y0047883D01*
X0068985Y0045383D01*
X0066485Y0042883D01*
X0066485Y0037883D01*
X0068985Y0035383D01*
X0066485Y0032883D01*
X0066485Y0027883D01*
X0068985Y0025383D01*
X0073985Y0025383D01*
X0076485Y0027883D01*
X0076485Y0032883D01*
X0073985Y0035383D01*
X0076485Y0037883D01*
X0076485Y0042883D01*
X0073985Y0045383D01*
X0076485Y0047883D01*
X0076485Y0052883D01*
X0073985Y0055383D01*
X0076485Y0057883D01*
X0076485Y0062883D01*
X0073985Y0065383D01*
X0068985Y0065383D01*
X0066485Y0062883D01*
X0066485Y0057883D01*
D11*
X0062487Y0057749D02*
X0045995Y0057749D01*
X0045368Y0052249D02*
X0043789Y0052249D01*
X0039639Y0048503D02*
X0038138Y0048503D01*
X0037387Y0047752D01*
X0035786Y0048503D02*
X0032783Y0048503D01*
X0034284Y0048503D02*
X0034284Y0043999D01*
X0037387Y0043999D02*
X0040390Y0047001D01*
X0040390Y0047752D01*
X0039639Y0048503D01*
X0040390Y0043999D02*
X0037387Y0043999D01*
X0046389Y0037985D02*
X0062881Y0037985D01*
X0064735Y0037843D02*
X0064735Y0034841D01*
X0064735Y0036342D02*
X0060231Y0036342D01*
X0061732Y0034841D01*
X0063234Y0033239D02*
X0060231Y0033239D01*
X0060231Y0030237D02*
X0063234Y0030237D01*
X0064735Y0031738D01*
X0063234Y0033239D01*
X0063507Y0032485D02*
X0065087Y0032485D01*
X0063984Y0028635D02*
X0063234Y0028635D01*
X0062483Y0027885D01*
X0062483Y0026383D01*
X0061732Y0025633D01*
X0060982Y0025633D01*
X0060231Y0026383D01*
X0060231Y0027885D01*
X0060982Y0028635D01*
X0063984Y0028635D02*
X0064735Y0027885D01*
X0064735Y0026383D01*
X0063984Y0025633D01*
X0069231Y0022634D02*
X0073735Y0022634D01*
X0073735Y0021133D02*
X0073735Y0024135D01*
X0070732Y0021133D02*
X0069231Y0022634D01*
X0055762Y0032485D02*
X0053507Y0032485D01*
X0062881Y0037985D02*
X0063034Y0037786D01*
X0063182Y0037584D01*
X0063325Y0037379D01*
X0063463Y0037170D01*
X0063596Y0036958D01*
X0063724Y0036743D01*
X0063846Y0036525D01*
X0063964Y0036304D01*
X0064076Y0036080D01*
X0064183Y0035854D01*
X0064284Y0035625D01*
X0064380Y0035394D01*
X0064471Y0035160D01*
X0064556Y0034925D01*
X0064635Y0034687D01*
X0064708Y0034448D01*
X0064776Y0034207D01*
X0064838Y0033965D01*
X0064894Y0033721D01*
X0064945Y0033475D01*
X0064989Y0033229D01*
X0065028Y0032982D01*
X0065060Y0032734D01*
X0065087Y0032485D01*
X0065109Y0032230D01*
X0065124Y0031974D01*
X0065132Y0031718D01*
X0065135Y0031461D01*
X0065131Y0031205D01*
X0065121Y0030949D01*
X0065105Y0030693D01*
X0065083Y0030438D01*
X0065054Y0030183D01*
X0065019Y0029929D01*
X0064978Y0029676D01*
X0064931Y0029424D01*
X0064877Y0029174D01*
X0064818Y0028925D01*
X0064752Y0028677D01*
X0064681Y0028431D01*
X0064603Y0028186D01*
X0064520Y0027944D01*
X0064431Y0027704D01*
X0064335Y0027466D01*
X0064234Y0027230D01*
X0064128Y0026997D01*
X0064015Y0026767D01*
X0063897Y0026539D01*
X0063774Y0026315D01*
X0063645Y0026093D01*
X0063511Y0025875D01*
X0063371Y0025660D01*
X0063226Y0025449D01*
X0063076Y0025241D01*
X0062922Y0025037D01*
X0062762Y0024836D01*
X0062597Y0024640D01*
X0062428Y0024448D01*
X0062253Y0024259D01*
X0062075Y0024076D01*
X0061892Y0023896D01*
X0061704Y0023721D01*
X0061513Y0023551D01*
X0061317Y0023386D01*
X0061117Y0023225D01*
X0060914Y0023069D01*
X0060707Y0022919D01*
X0060496Y0022773D01*
X0060281Y0022632D01*
X0060064Y0022497D01*
X0059843Y0022367D01*
X0059619Y0022243D01*
X0059392Y0022124D01*
X0059162Y0022011D01*
X0058929Y0021903D01*
X0058694Y0021801D01*
X0058456Y0021705D01*
X0058217Y0021615D01*
X0057975Y0021530D01*
X0057731Y0021452D01*
X0051539Y0021452D02*
X0051297Y0021530D01*
X0051057Y0021614D01*
X0050819Y0021703D01*
X0050583Y0021798D01*
X0050349Y0021900D01*
X0050118Y0022006D01*
X0049890Y0022119D01*
X0049664Y0022236D01*
X0049441Y0022359D01*
X0049222Y0022488D01*
X0049005Y0022622D01*
X0048792Y0022761D01*
X0048582Y0022905D01*
X0048376Y0023054D01*
X0048174Y0023208D01*
X0047975Y0023367D01*
X0047780Y0023531D01*
X0047589Y0023700D01*
X0047403Y0023873D01*
X0047220Y0024050D01*
X0047042Y0024232D01*
X0046869Y0024418D01*
X0046700Y0024609D01*
X0046536Y0024803D01*
X0046376Y0025001D01*
X0046221Y0025203D01*
X0046072Y0025409D01*
X0045927Y0025618D01*
X0045787Y0025831D01*
X0045653Y0026047D01*
X0045524Y0026267D01*
X0045400Y0026489D01*
X0045281Y0026714D01*
X0045169Y0026942D01*
X0045061Y0027173D01*
X0044960Y0027406D01*
X0044864Y0027642D01*
X0044773Y0027880D01*
X0044689Y0028120D01*
X0044610Y0028362D01*
X0044537Y0028606D01*
X0044471Y0028852D01*
X0044410Y0029099D01*
X0044355Y0029347D01*
X0044306Y0029597D01*
X0044263Y0029848D01*
X0044227Y0030100D01*
X0044196Y0030352D01*
X0044172Y0030606D01*
X0044154Y0030859D01*
X0044142Y0031114D01*
X0044136Y0031368D01*
X0044136Y0031623D01*
X0044142Y0031877D01*
X0044155Y0032131D01*
X0044174Y0032385D01*
X0044199Y0032638D01*
X0044230Y0032891D01*
X0044267Y0033143D01*
X0044310Y0033393D01*
X0044359Y0033643D01*
X0044415Y0033892D01*
X0044476Y0034139D01*
X0044543Y0034384D01*
X0044616Y0034628D01*
X0044695Y0034870D01*
X0044780Y0035109D01*
X0044871Y0035347D01*
X0044968Y0035583D01*
X0045070Y0035816D01*
X0045178Y0036046D01*
X0045291Y0036274D01*
X0045410Y0036499D01*
X0045534Y0036721D01*
X0045664Y0036940D01*
X0045798Y0037156D01*
X0045938Y0037369D01*
X0046084Y0037578D01*
X0046234Y0037783D01*
X0046389Y0037985D01*
X0045762Y0032485D02*
X0044182Y0032485D01*
X0039282Y0028739D02*
X0039282Y0024235D01*
X0037781Y0024235D02*
X0040783Y0024235D01*
X0037781Y0027238D02*
X0039282Y0028739D01*
X0036179Y0028739D02*
X0033177Y0028739D01*
X0034678Y0028739D02*
X0034678Y0024235D01*
X0018055Y0017715D02*
X0015052Y0017715D01*
X0016554Y0017715D02*
X0016554Y0022218D01*
X0015052Y0020717D01*
X0013451Y0019966D02*
X0012700Y0019216D01*
X0010448Y0019216D01*
X0010448Y0017715D02*
X0010448Y0022218D01*
X0012700Y0022218D01*
X0013451Y0021468D01*
X0013451Y0019966D01*
X0008847Y0022218D02*
X0007346Y0022218D01*
X0008096Y0022218D02*
X0008096Y0018465D01*
X0007346Y0017715D01*
X0006595Y0017715D01*
X0005844Y0018465D01*
X0034284Y0063763D02*
X0034284Y0068266D01*
X0032783Y0068266D02*
X0035786Y0068266D01*
X0037387Y0067516D02*
X0038138Y0068266D01*
X0039639Y0068266D01*
X0040390Y0067516D01*
X0040390Y0066765D01*
X0039639Y0066015D01*
X0040390Y0065264D01*
X0040390Y0064513D01*
X0039639Y0063763D01*
X0038138Y0063763D01*
X0037387Y0064513D01*
X0038888Y0066015D02*
X0039639Y0066015D01*
X0043789Y0072013D02*
X0045368Y0072013D01*
X0045995Y0077513D02*
X0062487Y0077513D01*
X0063114Y0072013D02*
X0064693Y0072013D01*
X0069231Y0068885D02*
X0071483Y0066633D01*
X0071483Y0069635D01*
X0073735Y0068885D02*
X0069231Y0068885D01*
X0055368Y0072013D02*
X0053114Y0072013D01*
X0062487Y0077513D02*
X0062640Y0077314D01*
X0062788Y0077112D01*
X0062931Y0076907D01*
X0063069Y0076698D01*
X0063202Y0076486D01*
X0063330Y0076271D01*
X0063452Y0076053D01*
X0063570Y0075832D01*
X0063682Y0075608D01*
X0063789Y0075382D01*
X0063890Y0075153D01*
X0063986Y0074922D01*
X0064077Y0074688D01*
X0064162Y0074453D01*
X0064241Y0074215D01*
X0064314Y0073976D01*
X0064382Y0073735D01*
X0064444Y0073493D01*
X0064500Y0073249D01*
X0064551Y0073003D01*
X0064595Y0072757D01*
X0064634Y0072510D01*
X0064666Y0072262D01*
X0064693Y0072013D01*
X0064715Y0071758D01*
X0064730Y0071502D01*
X0064738Y0071246D01*
X0064741Y0070989D01*
X0064737Y0070733D01*
X0064727Y0070477D01*
X0064711Y0070221D01*
X0064689Y0069966D01*
X0064660Y0069711D01*
X0064625Y0069457D01*
X0064584Y0069204D01*
X0064537Y0068952D01*
X0064483Y0068702D01*
X0064424Y0068453D01*
X0064358Y0068205D01*
X0064287Y0067959D01*
X0064209Y0067714D01*
X0064126Y0067472D01*
X0064037Y0067232D01*
X0063941Y0066994D01*
X0063840Y0066758D01*
X0063734Y0066525D01*
X0063621Y0066295D01*
X0063503Y0066067D01*
X0063380Y0065843D01*
X0063251Y0065621D01*
X0063117Y0065403D01*
X0062977Y0065188D01*
X0062832Y0064977D01*
X0062682Y0064769D01*
X0062528Y0064565D01*
X0062368Y0064364D01*
X0062203Y0064168D01*
X0062034Y0063976D01*
X0061859Y0063787D01*
X0061681Y0063604D01*
X0061498Y0063424D01*
X0061310Y0063249D01*
X0061119Y0063079D01*
X0060923Y0062914D01*
X0060723Y0062753D01*
X0060520Y0062597D01*
X0060313Y0062447D01*
X0060102Y0062301D01*
X0059887Y0062160D01*
X0059670Y0062025D01*
X0059449Y0061895D01*
X0059225Y0061771D01*
X0058998Y0061652D01*
X0058768Y0061539D01*
X0058535Y0061431D01*
X0058300Y0061329D01*
X0058062Y0061233D01*
X0057823Y0061143D01*
X0057581Y0061058D01*
X0057337Y0060980D01*
X0055368Y0052249D02*
X0053114Y0052249D01*
X0062487Y0057749D02*
X0062640Y0057550D01*
X0062788Y0057348D01*
X0062931Y0057143D01*
X0063069Y0056934D01*
X0063202Y0056722D01*
X0063330Y0056507D01*
X0063452Y0056289D01*
X0063570Y0056068D01*
X0063682Y0055844D01*
X0063789Y0055618D01*
X0063890Y0055389D01*
X0063986Y0055158D01*
X0064077Y0054924D01*
X0064162Y0054689D01*
X0064241Y0054451D01*
X0064314Y0054212D01*
X0064382Y0053971D01*
X0064444Y0053729D01*
X0064500Y0053485D01*
X0064551Y0053239D01*
X0064595Y0052993D01*
X0064634Y0052746D01*
X0064666Y0052498D01*
X0064693Y0052249D01*
X0063114Y0052249D01*
X0064693Y0052249D02*
X0064715Y0051994D01*
X0064730Y0051738D01*
X0064738Y0051482D01*
X0064741Y0051225D01*
X0064737Y0050969D01*
X0064727Y0050713D01*
X0064711Y0050457D01*
X0064689Y0050202D01*
X0064660Y0049947D01*
X0064625Y0049693D01*
X0064584Y0049440D01*
X0064537Y0049188D01*
X0064483Y0048938D01*
X0064424Y0048689D01*
X0064358Y0048441D01*
X0064287Y0048195D01*
X0064209Y0047950D01*
X0064126Y0047708D01*
X0064037Y0047468D01*
X0063941Y0047230D01*
X0063840Y0046994D01*
X0063734Y0046761D01*
X0063621Y0046531D01*
X0063503Y0046303D01*
X0063380Y0046079D01*
X0063251Y0045857D01*
X0063117Y0045639D01*
X0062977Y0045424D01*
X0062832Y0045213D01*
X0062682Y0045005D01*
X0062528Y0044801D01*
X0062368Y0044600D01*
X0062203Y0044404D01*
X0062034Y0044212D01*
X0061859Y0044023D01*
X0061681Y0043840D01*
X0061498Y0043660D01*
X0061310Y0043485D01*
X0061119Y0043315D01*
X0060923Y0043150D01*
X0060723Y0042989D01*
X0060520Y0042833D01*
X0060313Y0042683D01*
X0060102Y0042537D01*
X0059887Y0042396D01*
X0059670Y0042261D01*
X0059449Y0042131D01*
X0059225Y0042007D01*
X0058998Y0041888D01*
X0058768Y0041775D01*
X0058535Y0041667D01*
X0058300Y0041565D01*
X0058062Y0041469D01*
X0057823Y0041379D01*
X0057581Y0041294D01*
X0057337Y0041216D01*
X0051145Y0041216D02*
X0050903Y0041294D01*
X0050663Y0041378D01*
X0050425Y0041467D01*
X0050189Y0041562D01*
X0049955Y0041664D01*
X0049724Y0041770D01*
X0049496Y0041883D01*
X0049270Y0042000D01*
X0049047Y0042123D01*
X0048828Y0042252D01*
X0048611Y0042386D01*
X0048398Y0042525D01*
X0048188Y0042669D01*
X0047982Y0042818D01*
X0047780Y0042972D01*
X0047581Y0043131D01*
X0047386Y0043295D01*
X0047195Y0043464D01*
X0047009Y0043637D01*
X0046826Y0043814D01*
X0046648Y0043996D01*
X0046475Y0044182D01*
X0046306Y0044373D01*
X0046142Y0044567D01*
X0045982Y0044765D01*
X0045827Y0044967D01*
X0045678Y0045173D01*
X0045533Y0045382D01*
X0045393Y0045595D01*
X0045259Y0045811D01*
X0045130Y0046031D01*
X0045006Y0046253D01*
X0044887Y0046478D01*
X0044775Y0046706D01*
X0044667Y0046937D01*
X0044566Y0047170D01*
X0044470Y0047406D01*
X0044379Y0047644D01*
X0044295Y0047884D01*
X0044216Y0048126D01*
X0044143Y0048370D01*
X0044077Y0048616D01*
X0044016Y0048863D01*
X0043961Y0049111D01*
X0043912Y0049361D01*
X0043869Y0049612D01*
X0043833Y0049864D01*
X0043802Y0050116D01*
X0043778Y0050370D01*
X0043760Y0050623D01*
X0043748Y0050878D01*
X0043742Y0051132D01*
X0043742Y0051387D01*
X0043748Y0051641D01*
X0043761Y0051895D01*
X0043780Y0052149D01*
X0043805Y0052402D01*
X0043836Y0052655D01*
X0043873Y0052907D01*
X0043916Y0053157D01*
X0043965Y0053407D01*
X0044021Y0053656D01*
X0044082Y0053903D01*
X0044149Y0054148D01*
X0044222Y0054392D01*
X0044301Y0054634D01*
X0044386Y0054873D01*
X0044477Y0055111D01*
X0044574Y0055347D01*
X0044676Y0055580D01*
X0044784Y0055810D01*
X0044897Y0056038D01*
X0045016Y0056263D01*
X0045140Y0056485D01*
X0045270Y0056704D01*
X0045404Y0056920D01*
X0045544Y0057133D01*
X0045690Y0057342D01*
X0045840Y0057547D01*
X0045995Y0057749D01*
X0051145Y0060980D02*
X0050903Y0061058D01*
X0050663Y0061142D01*
X0050425Y0061231D01*
X0050189Y0061326D01*
X0049955Y0061428D01*
X0049724Y0061534D01*
X0049496Y0061647D01*
X0049270Y0061764D01*
X0049047Y0061887D01*
X0048828Y0062016D01*
X0048611Y0062150D01*
X0048398Y0062289D01*
X0048188Y0062433D01*
X0047982Y0062582D01*
X0047780Y0062736D01*
X0047581Y0062895D01*
X0047386Y0063059D01*
X0047195Y0063228D01*
X0047009Y0063401D01*
X0046826Y0063578D01*
X0046648Y0063760D01*
X0046475Y0063946D01*
X0046306Y0064137D01*
X0046142Y0064331D01*
X0045982Y0064529D01*
X0045827Y0064731D01*
X0045678Y0064937D01*
X0045533Y0065146D01*
X0045393Y0065359D01*
X0045259Y0065575D01*
X0045130Y0065795D01*
X0045006Y0066017D01*
X0044887Y0066242D01*
X0044775Y0066470D01*
X0044667Y0066701D01*
X0044566Y0066934D01*
X0044470Y0067170D01*
X0044379Y0067408D01*
X0044295Y0067648D01*
X0044216Y0067890D01*
X0044143Y0068134D01*
X0044077Y0068380D01*
X0044016Y0068627D01*
X0043961Y0068875D01*
X0043912Y0069125D01*
X0043869Y0069376D01*
X0043833Y0069628D01*
X0043802Y0069880D01*
X0043778Y0070134D01*
X0043760Y0070387D01*
X0043748Y0070642D01*
X0043742Y0070896D01*
X0043742Y0071151D01*
X0043748Y0071405D01*
X0043761Y0071659D01*
X0043780Y0071913D01*
X0043805Y0072166D01*
X0043836Y0072419D01*
X0043873Y0072671D01*
X0043916Y0072921D01*
X0043965Y0073171D01*
X0044021Y0073420D01*
X0044082Y0073667D01*
X0044149Y0073912D01*
X0044222Y0074156D01*
X0044301Y0074398D01*
X0044386Y0074637D01*
X0044477Y0074875D01*
X0044574Y0075111D01*
X0044676Y0075344D01*
X0044784Y0075574D01*
X0044897Y0075802D01*
X0045016Y0076027D01*
X0045140Y0076249D01*
X0045270Y0076468D01*
X0045404Y0076684D01*
X0045544Y0076897D01*
X0045690Y0077106D01*
X0045840Y0077311D01*
X0045995Y0077513D01*
D12*
X0036802Y0063769D03*
X0036408Y0043611D03*
X0036408Y0023847D03*
X0014908Y0023847D03*
X0014908Y0043611D03*
X0015302Y0063769D03*
D13*
X0016252Y0069069D02*
X0016252Y0072571D01*
X0018003Y0072571D01*
X0018587Y0071988D01*
X0018587Y0070820D01*
X0018003Y0070236D01*
X0016252Y0070236D01*
X0017420Y0070236D02*
X0018587Y0069069D01*
X0019843Y0069652D02*
X0020427Y0069069D01*
X0021595Y0069069D01*
X0022178Y0069652D01*
X0022178Y0070236D01*
X0021595Y0070820D01*
X0021011Y0070820D01*
X0021595Y0070820D02*
X0022178Y0071404D01*
X0022178Y0071988D01*
X0021595Y0072571D01*
X0020427Y0072571D01*
X0019843Y0071988D01*
X0020033Y0052414D02*
X0019449Y0051830D01*
X0020033Y0052414D02*
X0021201Y0052414D01*
X0021785Y0051830D01*
X0021785Y0051246D01*
X0019449Y0048911D01*
X0021785Y0048911D01*
X0018194Y0048911D02*
X0017026Y0050079D01*
X0017610Y0050079D02*
X0015858Y0050079D01*
X0015858Y0048911D02*
X0015858Y0052414D01*
X0017610Y0052414D01*
X0018194Y0051830D01*
X0018194Y0050663D01*
X0017610Y0050079D01*
X0017610Y0032650D02*
X0015858Y0032650D01*
X0015858Y0029147D01*
X0015858Y0030315D02*
X0017610Y0030315D01*
X0018194Y0030899D01*
X0018194Y0032066D01*
X0017610Y0032650D01*
X0019449Y0031483D02*
X0020617Y0032650D01*
X0020617Y0029147D01*
X0019449Y0029147D02*
X0021785Y0029147D01*
X0018194Y0029147D02*
X0017026Y0030315D01*
M02*
