G75*
%MOIN*%
%OFA0B0*%
%FSLAX25Y25*%
%IPPOS*%
%LPD*%
%AMOC8*
5,1,8,0,0,1.08239X$1,22.5*
%
%ADD10C,0.00600*%
%ADD11C,0.00500*%
D10*
X0056564Y0007489D02*
X0059064Y0004989D01*
X0064064Y0004989D01*
X0066564Y0007489D01*
X0069064Y0004989D01*
X0074064Y0004989D01*
X0076564Y0007489D01*
X0076564Y0012489D01*
X0074064Y0014989D01*
X0069064Y0014989D01*
X0066564Y0012489D01*
X0064064Y0014989D01*
X0059064Y0014989D01*
X0056564Y0012489D01*
X0056564Y0007489D01*
X0066564Y0007489D02*
X0066564Y0012489D01*
D11*
X0067406Y0017439D02*
X0064403Y0017439D01*
X0064403Y0020442D02*
X0064403Y0021192D01*
X0065154Y0021943D01*
X0066655Y0021943D01*
X0067406Y0021192D01*
X0069007Y0021192D02*
X0069007Y0019691D01*
X0069758Y0018940D01*
X0072010Y0018940D01*
X0072010Y0017439D02*
X0072010Y0021943D01*
X0069758Y0021943D01*
X0069007Y0021192D01*
X0067406Y0017439D02*
X0064403Y0020442D01*
X0073611Y0021943D02*
X0075113Y0021943D01*
X0074362Y0021943D02*
X0074362Y0018190D01*
X0075113Y0017439D01*
X0075863Y0017439D01*
X0076614Y0018190D01*
M02*
